<svg xmlns="http://www.w3.org/2000/svg" xmlns:xlink="http://www.w3.org/1999/xlink" width="500" zoomAndPan="magnify" viewBox="0 0 375 374.999991" height="500" preserveAspectRatio="xMidYMid meet" version="1.0"><defs><clipPath id="id1"><path d="M 205 7.421875 L 329 7.421875 L 329 184 L 205 184 Z M 205 7.421875 " clip-rule="nonzero"/></clipPath><clipPath id="id2"><path d="M 98 221 L 243 221 L 243 367.421875 L 98 367.421875 Z M 98 221 " clip-rule="nonzero"/></clipPath></defs><g clip-path="url(#id1)"><path fill="#7cb342" d="M 285.261719 30.457031 C 276.617188 30.457031 269.613281 37.460938 269.613281 46.101562 C 269.613281 54.742188 276.617188 61.746094 285.261719 61.746094 C 293.90625 61.746094 300.914062 54.742188 300.914062 46.101562 C 300.914062 37.460938 293.90625 30.457031 285.261719 30.457031 Z M 262.972656 183.625 L 205.105469 7.472656 L 270.75 142.410156 L 298.914062 97.730469 L 253.488281 91.539062 L 240.972656 65.957031 L 315.0625 81.457031 L 328.570312 84.285156 L 321.324219 95.257812 L 275.53125 164.605469 L 262.972656 183.625 " fill-opacity="1" fill-rule="nonzero"/></g><path fill="#f57c00" d="M 119.976562 14.8125 C 111.332031 14.8125 104.324219 21.816406 104.324219 30.457031 C 104.324219 39.097656 111.332031 46.101562 119.976562 46.101562 C 128.621094 46.101562 135.628906 39.097656 135.628906 30.457031 C 135.628906 21.816406 128.621094 14.8125 119.976562 14.8125 Z M 226.078125 120.636719 L 50.632812 60.457031 L 197.890625 89.566406 L 179.246094 40.152344 L 146.890625 72.621094 L 118.929688 67.160156 L 176.007812 17.460938 L 186.414062 8.398438 L 190.792969 20.796875 L 218.480469 99.144531 L 226.078125 120.636719 " fill-opacity="1" fill-rule="nonzero"/><path fill="#3c9cd6" d="M 359.371094 154.101562 C 350.726562 154.101562 343.71875 161.105469 343.71875 169.746094 C 343.71875 178.386719 350.726562 185.390625 359.371094 185.390625 C 368.015625 185.390625 375.019531 178.386719 375.019531 169.746094 C 375.019531 161.105469 368.015625 154.101562 359.371094 154.101562 Z M 241.394531 246.230469 L 341.753906 90.304688 L 278.308594 226.289062 L 330.765625 219.992188 L 306.945312 180.832031 L 318.933594 154.996094 L 353.582031 222.265625 L 359.902344 234.53125 L 346.8125 235.824219 L 264.085938 243.992188 L 241.394531 246.230469 " fill-opacity="1" fill-rule="nonzero"/><path fill="#1a237e" d="M 300.914062 303.003906 C 292.269531 303.003906 285.261719 310.007812 285.261719 318.648438 C 285.261719 327.289062 292.269531 334.292969 300.914062 334.292969 C 309.554688 334.292969 316.5625 327.289062 316.5625 318.648438 C 316.5625 310.007812 309.554688 303.003906 300.914062 303.003906 Z M 171.542969 263.511719 L 356.292969 246.96875 L 209.953125 280.394531 L 247.128906 317.917969 L 263.433594 275.082031 L 291.195312 268.679688 L 259.339844 337.320312 L 253.535156 349.832031 L 244.480469 340.296875 L 187.242188 280.039062 L 171.542969 263.511719 " fill-opacity="1" fill-rule="nonzero"/><g clip-path="url(#id2)"><path fill="#ef5350" d="M 165.804688 336.042969 C 157.160156 336.042969 150.152344 343.046875 150.152344 351.6875 C 150.152344 360.328125 157.160156 367.332031 165.804688 367.332031 C 174.449219 367.332031 181.453125 360.328125 181.453125 351.6875 C 181.453125 343.046875 174.449219 336.042969 165.804688 336.042969 Z M 117.886719 221.566406 L 242.570312 358.832031 L 127.597656 262.363281 L 120.101562 314.640625 L 164.109375 301.789062 L 185.96875 320.046875 L 111.992188 336.082031 L 98.507812 339.007812 L 100.648438 326.035156 L 114.175781 244.050781 L 117.886719 221.566406 " fill-opacity="1" fill-rule="nonzero"/></g><path fill="#e3a72f" d="M 34.984375 250.175781 C 26.339844 250.175781 19.332031 257.179688 19.332031 265.824219 C 19.332031 274.460938 26.339844 281.464844 34.984375 281.464844 C 43.625 281.464844 50.632812 274.460938 50.632812 265.824219 C 50.632812 257.179688 43.625 250.175781 34.984375 250.175781 Z M 114.097656 154.332031 L 87.222656 337.785156 L 88.734375 187.742188 L 43.578125 215.15625 L 81.464844 240.972656 L 81.238281 269.449219 L 21.859375 222.515625 L 11.035156 213.960938 L 22.417969 207.375 L 94.363281 165.75 L 114.097656 154.332031 " fill-opacity="1" fill-rule="nonzero"/><path fill="#9c27b0" d="M 19.332031 117.726562 C 10.6875 117.726562 3.679688 124.730469 3.679688 133.371094 C 3.679688 142.011719 10.6875 149.015625 19.332031 149.015625 C 27.976562 149.015625 34.984375 142.011719 34.984375 133.371094 C 34.984375 124.730469 27.976562 117.726562 19.332031 117.726562 Z M 155.246094 107.949219 L 0.015625 209.433594 L 113.40625 111.117188 L 62.941406 95.492188 L 68.71875 140.957031 L 47.238281 159.664062 L 43.03125 84.117188 L 42.265625 70.34375 L 54.746094 74.5 L 133.613281 100.75 L 155.246094 107.949219 " fill-opacity="1" fill-rule="nonzero"/></svg>